<svg xmlns="http://www.w3.org/2000/svg">
  <symbol id="menu" viewBox="0 0 16 16">
    <g clip-path="url(#clip0_526_48)">
      <path
        d="M14.5276 0.00842285H1.47241C0.660531 0.00842285 0 0.668923 0 1.48183C0 2.2937 0.660531 2.95424 1.47241 2.95424H14.5276C15.3395 2.95424 16 2.2937 16 1.48183C16 0.668923 15.3395 0.00842285 14.5276 0.00842285Z"
        fill="currentColor"/>
      <path
        d="M14.5276 6.5271H1.47241C0.660531 6.5271 0 7.1876 0 8.00051C0 8.81238 0.660531 9.47291 1.47241 9.47291H14.5276C15.3395 9.47291 16 8.81238 16 8.00051C16 7.1876 15.3395 6.5271 14.5276 6.5271Z"
        fill="currentColor"/>
      <path
        d="M14.5276 13.0458H1.47241C0.660531 13.0458 0 13.7063 0 14.5192C0 15.3311 0.660531 15.9916 1.47241 15.9916H14.5276C15.3395 15.9916 16 15.3311 16 14.5192C16 13.7063 15.3395 13.0458 14.5276 13.0458Z"
        fill="currentColor"/>
    </g>
  </symbol>
</svg>
